<svg width="591" height="900" viewBox="0 0 591 900" fill="none" xmlns="http://www.w3.org/2000/svg">
<rect width="591" height="900" fill="#FFFBEE"/>
<path d="M229.995 432.707C229.809 432.707 229.624 432.555 229.624 432.372C229.531 431.671 229.161 431.031 228.636 430.544C228.018 430.026 227.061 429.782 225.826 429.782C225.147 429.751 224.499 429.843 223.85 430.056C223.418 430.208 223.016 430.452 222.708 430.818C222.461 431.123 222.337 431.519 222.337 431.915C222.306 432.22 222.368 432.555 222.522 432.829C222.677 433.134 222.924 433.378 223.202 433.56C223.572 433.804 224.005 434.018 224.406 434.139C224.993 434.322 225.579 434.505 226.166 434.596L228.512 435.084C229.933 435.358 231.291 435.785 232.588 436.394C233.607 436.882 234.564 437.522 235.367 438.314C236.077 439.015 236.602 439.868 236.942 440.782C237.281 441.727 237.467 442.763 237.467 443.769C237.498 445.445 237.003 447.09 236.046 448.492C235.027 449.833 233.638 450.869 232.063 451.448C230.056 452.179 227.957 452.514 225.826 452.453C223.603 452.514 221.38 452.118 219.311 451.356C217.551 450.716 216.038 449.528 214.989 448.004C214.031 446.572 213.507 444.774 213.445 442.58C213.445 442.367 213.63 442.184 213.846 442.184H220.454C220.67 442.184 220.824 442.336 220.855 442.55C220.917 443.19 221.133 443.83 221.473 444.378C221.874 444.988 222.461 445.445 223.14 445.719C223.943 446.054 224.807 446.206 225.703 446.176C226.413 446.206 227.123 446.085 227.802 445.871C228.296 445.719 228.729 445.414 229.068 445.018C229.346 444.683 229.501 444.226 229.531 443.799C229.531 443.373 229.377 442.976 229.099 442.672C228.729 442.276 228.265 441.971 227.741 441.788C226.907 441.453 226.073 441.209 225.209 441.057L222.368 440.447C219.836 439.899 217.829 438.984 216.378 437.705C214.927 436.425 214.186 434.688 214.186 432.463C214.155 430.787 214.649 429.111 215.637 427.74C216.687 426.338 218.107 425.241 219.744 424.571C221.658 423.779 223.696 423.413 225.764 423.444C227.833 423.383 229.871 423.779 231.785 424.602C233.391 425.272 234.75 426.399 235.707 427.832C236.571 429.172 237.065 430.696 237.096 432.281C237.096 432.494 236.942 432.677 236.695 432.677L229.995 432.707Z" fill="#004268"/>
<path d="M244.41 423.838H251.172C251.48 423.838 251.789 424.021 251.913 424.295L257.285 435.326H257.501L262.873 424.295C262.996 424.021 263.305 423.838 263.614 423.838H270.375C270.838 423.838 271.208 424.204 271.208 424.661C271.208 424.783 271.178 424.935 271.116 425.057L261.236 443.249V451.324C261.236 451.781 260.866 452.147 260.403 452.147H254.321C253.858 452.147 253.487 451.781 253.487 451.324V443.249L243.608 425.057C243.392 424.661 243.546 424.173 243.947 423.96C244.132 423.899 244.287 423.838 244.41 423.838Z" fill="#004268"/>
<path d="M303.999 424.661V451.324C303.999 451.781 303.629 452.147 303.166 452.147H297.484L287.11 437.276H286.956V451.324C286.956 451.781 286.585 452.147 286.122 452.147H280.008C279.545 452.147 279.175 451.781 279.175 451.324V424.661C279.175 424.204 279.545 423.838 280.008 423.838H285.35C285.628 423.838 285.875 423.96 286.029 424.204L295.972 438.647H296.188V424.661C296.188 424.204 296.558 423.838 297.021 423.838H303.135C303.629 423.838 303.999 424.234 303.999 424.661Z" fill="#004268"/>
<path d="M315.883 451.324V424.661C315.883 424.204 316.253 423.838 316.716 423.838H335.736C336.199 423.838 336.57 424.204 336.57 424.661V429.201C336.57 429.658 336.199 430.024 335.736 430.024H323.695V434.899H334.687C335.15 434.899 335.52 435.265 335.52 435.722V440.262C335.52 440.72 335.15 441.085 334.687 441.085H323.695V445.961H335.675C336.138 445.961 336.508 446.326 336.508 446.784V451.324C336.508 451.781 336.138 452.147 335.675 452.147H316.716C316.253 452.147 315.883 451.781 315.883 451.324Z" fill="#004268"/>
<path d="M353.95 423.838C354.259 423.838 354.536 423.99 354.66 424.265L359.137 432.096H359.353L363.86 424.265C364.015 424.021 364.292 423.838 364.57 423.838H371.301C371.764 423.838 372.134 424.204 372.134 424.661C372.134 424.813 372.103 424.965 372.011 425.087L364.2 438.008L372.32 450.897C372.567 451.293 372.443 451.781 372.042 452.025C371.918 452.116 371.764 452.147 371.609 452.147H364.694C364.385 452.147 364.107 451.994 363.984 451.72L359.353 443.736H359.137L354.506 451.72C354.351 451.964 354.073 452.147 353.795 452.147H346.911C346.448 452.147 346.077 451.781 346.077 451.324C346.077 451.172 346.108 451.019 346.201 450.897L354.228 438.008L346.448 425.087C346.201 424.691 346.355 424.204 346.726 423.96C346.849 423.899 347.003 423.838 347.158 423.838H353.95Z" fill="#004268"/>
<path d="M397.946 423.838H404.06C404.523 423.838 404.894 424.204 404.894 424.661V441.969C405.048 445.961 402.701 449.617 398.996 451.202C394.859 452.908 390.166 452.908 386.028 451.202C382.323 449.617 380.007 445.961 380.162 441.969V424.661C380.162 424.204 380.532 423.838 380.995 423.838H387.109C387.572 423.838 387.942 424.204 387.942 424.661V441.299C387.942 442.121 388.128 442.914 388.529 443.645C388.9 444.315 389.486 444.864 390.166 445.26C391.648 446.022 393.438 446.022 394.92 445.26C395.6 444.894 396.156 444.315 396.557 443.645C396.958 442.914 397.174 442.121 397.144 441.299V424.661C397.113 424.234 397.483 423.838 397.946 423.838Z" fill="#004268"/>
<path d="M430.239 432.707C430.053 432.707 429.868 432.555 429.868 432.372C429.776 431.671 429.405 431.031 428.88 430.544C428.263 430.026 427.305 429.782 426.07 429.782C425.391 429.751 424.743 429.843 424.094 430.056C423.662 430.208 423.261 430.452 422.952 430.818C422.705 431.123 422.581 431.519 422.581 431.915C422.55 432.22 422.612 432.555 422.767 432.829C422.921 433.134 423.168 433.378 423.446 433.56C423.816 433.804 424.249 434.018 424.65 434.139C425.237 434.322 425.823 434.505 426.41 434.596L428.757 435.084C430.177 435.358 431.535 435.785 432.832 436.394C433.851 436.882 434.808 437.522 435.611 438.314C436.321 439.015 436.846 439.868 437.186 440.782C437.526 441.727 437.711 442.763 437.711 443.769C437.742 445.445 437.248 447.09 436.29 448.492C435.272 449.833 433.882 450.869 432.307 451.448C430.3 452.179 428.201 452.514 426.07 452.453C423.847 452.514 421.624 452.118 419.555 451.356C417.796 450.716 416.283 449.528 415.233 448.004C414.276 446.572 413.751 444.774 413.689 442.58C413.689 442.367 413.874 442.184 414.09 442.184H420.698C420.914 442.184 421.068 442.336 421.099 442.55C421.161 443.19 421.377 443.83 421.717 444.378C422.118 444.988 422.705 445.445 423.384 445.719C424.187 446.054 425.051 446.206 425.947 446.176C426.657 446.206 427.367 446.085 428.046 445.871C428.54 445.719 428.973 445.414 429.312 445.018C429.59 444.683 429.745 444.226 429.776 443.799C429.776 443.373 429.621 442.976 429.343 442.672C428.973 442.276 428.51 441.971 427.985 441.788C427.151 441.453 426.317 441.209 425.453 441.057L422.612 440.447C420.08 439.899 418.073 438.984 416.622 437.705C415.171 436.425 414.43 434.688 414.43 432.463C414.399 430.787 414.893 429.111 415.881 427.74C416.931 426.338 418.351 425.241 419.988 424.571C421.902 423.779 423.94 423.413 426.009 423.444C428.077 423.383 430.115 423.779 432.03 424.602C433.635 425.272 434.994 426.399 435.951 427.832C436.815 429.172 437.309 430.696 437.34 432.281C437.34 432.494 437.186 432.677 436.939 432.677L430.239 432.707Z" fill="#004268"/>
<path d="M217.643 465.706V464.67C217.643 464.456 217.828 464.273 218.044 464.273H227.091C227.307 464.273 227.493 464.456 227.493 464.67V465.706C227.493 465.919 227.307 466.102 227.091 466.102H224.096C223.88 466.102 223.695 466.285 223.695 466.498V476.036C223.695 476.249 223.51 476.432 223.293 476.432H221.904C221.688 476.432 221.503 476.249 221.503 476.036V466.498C221.503 466.285 221.317 466.102 221.101 466.102H218.106C217.828 466.132 217.643 465.949 217.643 465.706Z" fill="#004268"/>
<path d="M234.778 476.496H233.265C233.049 476.496 232.864 476.313 232.864 476.099C232.864 476.038 232.864 476.008 232.895 475.978L236.97 464.581C237.032 464.429 237.186 464.307 237.372 464.307H239.564C239.749 464.307 239.904 464.429 239.965 464.581L244.041 475.978C244.103 476.191 244.01 476.435 243.794 476.496C243.763 476.526 243.701 476.526 243.67 476.526H242.158C241.972 476.526 241.818 476.404 241.756 476.252L238.545 466.836H238.452L235.241 476.252C235.118 476.374 234.963 476.496 234.778 476.496ZM235.581 471.681H241.262C241.478 471.681 241.664 471.864 241.664 472.077V473.022C241.664 473.235 241.478 473.418 241.262 473.418H235.581C235.365 473.418 235.179 473.235 235.179 473.022V472.077C235.149 471.864 235.334 471.681 235.581 471.681Z" fill="#004268"/>
<path d="M251.851 464.273C252.005 464.273 252.129 464.334 252.222 464.487L254.815 468.753H254.908L257.532 464.487C257.594 464.365 257.748 464.304 257.903 464.304H259.478C259.694 464.304 259.879 464.487 259.879 464.7C259.879 464.761 259.848 464.852 259.817 464.913L256.513 470.155C256.421 470.276 256.421 470.459 256.513 470.581L259.848 475.853C259.972 476.036 259.91 476.31 259.725 476.432C259.663 476.462 259.57 476.493 259.508 476.493H257.903C257.748 476.493 257.625 476.432 257.563 476.31L254.939 472.074H254.846L252.222 476.31C252.16 476.432 252.005 476.493 251.882 476.493H250.276C250.06 476.493 249.875 476.31 249.875 476.097C249.875 476.005 249.906 475.944 249.937 475.883L253.302 470.612C253.395 470.49 253.395 470.307 253.302 470.185L249.968 464.913C249.844 464.731 249.906 464.456 250.091 464.334C250.153 464.304 250.246 464.273 250.307 464.273H251.851Z" fill="#004268"/>
<path d="M280.225 467.627C280.04 467.627 279.886 467.505 279.824 467.322C279.731 466.956 279.484 466.621 279.176 466.408C278.682 466.103 278.126 465.951 277.539 465.981C277.138 465.981 276.706 466.042 276.335 466.195C276.026 466.317 275.779 466.499 275.563 466.774C275.378 467.017 275.285 467.292 275.285 467.596C275.285 467.84 275.347 468.053 275.471 468.267C275.594 468.45 275.748 468.632 275.965 468.754C276.181 468.876 276.397 468.998 276.644 469.09C276.891 469.181 277.138 469.242 277.385 469.303L278.558 469.577C279.021 469.669 279.484 469.821 279.917 470.004C280.349 470.187 280.72 470.4 281.09 470.705C281.43 470.979 281.708 471.314 281.924 471.71C282.14 472.137 282.232 472.624 282.232 473.081C282.232 473.752 282.047 474.422 281.677 474.971C281.275 475.55 280.72 475.976 280.071 476.251C279.268 476.586 278.404 476.738 277.539 476.708C276.675 476.738 275.841 476.586 275.038 476.281C274.359 476.007 273.803 475.58 273.371 475.001C273.031 474.514 272.846 473.965 272.753 473.417C272.723 473.203 272.877 472.99 273.124 472.96C273.155 472.96 273.155 472.96 273.186 472.96H274.575C274.76 472.96 274.946 473.081 274.977 473.264C275.038 473.538 275.162 473.782 275.316 473.996C275.563 474.27 275.872 474.514 276.242 474.636C276.644 474.788 277.076 474.849 277.508 474.849C277.941 474.849 278.373 474.788 278.805 474.636C279.145 474.514 279.454 474.3 279.67 474.026C279.886 473.752 279.978 473.447 279.978 473.112C279.978 472.838 279.886 472.533 279.701 472.32C279.484 472.076 279.207 471.923 278.929 471.802C278.558 471.649 278.157 471.527 277.755 471.436L276.335 471.07C275.44 470.887 274.606 470.461 273.927 469.882C273.34 469.333 273 468.572 273.031 467.779C273.031 467.109 273.217 466.438 273.618 465.89C274.019 465.341 274.606 464.884 275.254 464.641C275.995 464.336 276.767 464.183 277.57 464.183C278.373 464.153 279.145 464.305 279.886 464.641C280.503 464.915 281.059 465.341 281.461 465.89C281.738 466.286 281.924 466.774 282.016 467.261C282.047 467.475 281.893 467.688 281.646 467.718C281.615 467.718 281.615 467.718 281.584 467.718L280.225 467.627Z" fill="#004268"/>
<path d="M299.984 470.371C300.015 471.529 299.768 472.687 299.243 473.754C298.78 474.638 298.07 475.399 297.205 475.917C295.383 476.923 293.191 476.923 291.4 475.917C290.536 475.399 289.826 474.668 289.363 473.754C288.375 471.621 288.375 469.153 289.363 466.989C289.826 466.105 290.536 465.344 291.4 464.825C293.222 463.82 295.414 463.82 297.205 464.825C298.07 465.344 298.78 466.075 299.243 466.989C299.768 468.056 300.015 469.213 299.984 470.371ZM297.73 470.371C297.761 469.579 297.607 468.756 297.298 468.025C297.051 467.446 296.619 466.928 296.094 466.562C295.013 465.892 293.624 465.892 292.543 466.562C292.018 466.928 291.586 467.416 291.339 468.025C290.752 469.549 290.752 471.194 291.339 472.718C291.586 473.297 292.018 473.815 292.543 474.18C293.624 474.851 295.013 474.851 296.094 474.18C296.619 473.815 297.051 473.327 297.298 472.718C297.607 471.986 297.761 471.194 297.73 470.371Z" fill="#004268"/>
<path d="M307.331 476.066V464.67C307.331 464.456 307.516 464.273 307.732 464.273H309.152C309.368 464.273 309.554 464.456 309.554 464.67V474.207C309.554 474.421 309.739 474.604 309.955 474.604H314.587C314.803 474.604 314.988 474.786 314.988 475V476.036C314.988 476.249 314.803 476.432 314.587 476.432H307.763C307.516 476.493 307.331 476.31 307.331 476.066Z" fill="#004268"/>
<path d="M328.695 464.273H330.115C330.331 464.273 330.517 464.456 330.517 464.67V472.227C330.548 473.049 330.331 473.842 329.899 474.543C329.467 475.213 328.88 475.762 328.139 476.097C326.472 476.828 324.527 476.828 322.859 476.097C322.149 475.762 321.532 475.213 321.099 474.543C320.667 473.842 320.451 473.049 320.482 472.227V464.67C320.482 464.456 320.667 464.273 320.883 464.273H322.304C322.52 464.273 322.705 464.456 322.705 464.67V472.074C322.705 472.562 322.829 473.019 323.045 473.446C323.261 473.842 323.6 474.177 324.002 474.39C324.928 474.847 326.009 474.847 326.966 474.39C327.367 474.177 327.707 473.842 327.923 473.446C328.139 473.019 328.263 472.562 328.263 472.074V464.7C328.294 464.456 328.479 464.273 328.695 464.273Z" fill="#004268"/>
<path d="M337.215 465.706V464.67C337.215 464.456 337.401 464.273 337.617 464.273H346.663C346.88 464.273 347.065 464.456 347.065 464.67V465.706C347.065 465.919 346.88 466.102 346.663 466.102H343.668C343.452 466.102 343.267 466.285 343.267 466.498V476.036C343.267 476.249 343.082 476.432 342.866 476.432H341.476C341.26 476.432 341.075 476.249 341.075 476.036V466.498C341.075 466.285 340.89 466.102 340.673 466.102H337.678C337.401 466.132 337.215 465.949 337.215 465.706Z" fill="#004268"/>
<path d="M356.636 464.67V476.066C356.636 476.28 356.45 476.462 356.234 476.462H354.814C354.598 476.462 354.413 476.28 354.413 476.066V464.67C354.413 464.456 354.598 464.273 354.814 464.273H356.234C356.45 464.273 356.636 464.456 356.636 464.67Z" fill="#004268"/>
<path d="M375.192 470.371C375.222 471.529 374.975 472.687 374.451 473.754C373.987 474.638 373.277 475.399 372.413 475.917C370.591 476.923 368.399 476.923 366.608 475.917C365.743 475.399 365.033 474.668 364.57 473.754C363.582 471.621 363.582 469.153 364.57 466.989C365.033 466.105 365.743 465.344 366.608 464.825C368.43 463.82 370.622 463.82 372.413 464.825C373.277 465.344 373.987 466.075 374.451 466.989C374.945 468.056 375.222 469.213 375.192 470.371ZM372.938 470.371C372.968 469.579 372.814 468.756 372.505 468.025C372.258 467.446 371.826 466.928 371.301 466.562C370.221 465.892 368.831 465.892 367.75 466.562C367.225 466.928 366.793 467.416 366.546 468.025C365.96 469.549 365.96 471.194 366.546 472.718C366.793 473.297 367.225 473.815 367.75 474.18C368.831 474.851 370.221 474.851 371.301 474.18C371.826 473.815 372.258 473.327 372.505 472.718C372.814 471.986 372.938 471.194 372.938 470.371Z" fill="#004268"/>
<path d="M391.709 464.67V476.066C391.709 476.28 391.524 476.462 391.308 476.462H389.95C389.826 476.462 389.672 476.401 389.61 476.28L383.898 468.143H383.805V476.066C383.805 476.28 383.62 476.462 383.404 476.462H381.983C381.767 476.462 381.582 476.28 381.582 476.066V464.67C381.582 464.456 381.767 464.273 381.983 464.273H383.342C383.465 464.273 383.62 464.334 383.682 464.456L389.394 472.592H389.517V464.67C389.517 464.456 389.703 464.273 389.919 464.273H391.308C391.524 464.273 391.709 464.456 391.709 464.67Z" fill="#004268"/>
<path d="M405.694 467.627C405.509 467.627 405.355 467.505 405.293 467.322C405.2 466.956 404.953 466.621 404.644 466.408C404.15 466.103 403.595 465.951 403.008 465.981C402.607 465.981 402.174 466.042 401.804 466.195C401.495 466.317 401.248 466.499 401.032 466.774C400.847 467.017 400.754 467.292 400.754 467.596C400.754 467.84 400.816 468.053 400.939 468.267C401.063 468.45 401.217 468.632 401.433 468.754C401.649 468.876 401.866 468.998 402.113 469.09C402.36 469.181 402.607 469.242 402.854 469.303L404.027 469.577C404.49 469.669 404.953 469.821 405.385 470.004C405.818 470.187 406.188 470.4 406.559 470.705C406.898 470.979 407.176 471.314 407.392 471.71C407.609 472.137 407.701 472.624 407.701 473.081C407.701 473.752 407.516 474.422 407.145 474.971C406.744 475.55 406.188 475.976 405.54 476.251C404.737 476.586 403.873 476.738 403.008 476.708C402.143 476.738 401.31 476.586 400.507 476.281C399.828 476.007 399.272 475.58 398.84 475.001C398.5 474.514 398.315 473.965 398.222 473.417C398.191 473.203 398.346 472.99 398.593 472.96C398.624 472.96 398.624 472.96 398.654 472.96H400.044C400.229 472.96 400.414 473.081 400.445 473.264C400.507 473.538 400.631 473.782 400.785 473.996C401.032 474.27 401.341 474.514 401.711 474.636C402.113 474.788 402.545 474.849 402.977 474.849C403.409 474.849 403.842 474.788 404.274 474.636C404.614 474.514 404.922 474.3 405.138 474.026C405.355 473.752 405.447 473.447 405.447 473.112C405.447 472.838 405.355 472.533 405.169 472.32C404.953 472.076 404.675 471.923 404.397 471.802C404.027 471.649 403.626 471.527 403.224 471.436L401.804 471.07C400.908 470.887 400.075 470.461 399.395 469.882C398.809 469.333 398.469 468.572 398.5 467.779C398.5 467.109 398.685 466.438 399.087 465.89C399.488 465.341 400.075 464.884 400.723 464.641C401.464 464.336 402.236 464.183 403.039 464.183C403.842 464.153 404.614 464.305 405.355 464.641C405.972 464.915 406.528 465.341 406.929 465.89C407.207 466.286 407.392 466.774 407.485 467.261C407.516 467.475 407.362 467.688 407.115 467.718C407.084 467.718 407.084 467.718 407.053 467.718L405.694 467.627Z" fill="#004268"/>
<path d="M410.88 464.735H411.745V466.958H412.455V464.735H413.32V464.156H410.88V464.735Z" fill="#004268"/>
<path d="M416.684 464.156H416.221H416.066L415.356 466.014L414.677 464.156H414.523H414.029H413.812V466.958H414.523V465.374L415.171 466.958H415.572L416.221 465.374V466.958H416.931V464.156H416.684Z" fill="#004268"/>
<path d="M144.103 490.999C152.185 490.999 158.737 484.532 158.737 476.555C158.737 468.578 152.185 462.111 144.103 462.111C136.021 462.111 129.469 468.578 129.469 476.555C129.469 484.532 136.021 490.999 144.103 490.999Z" fill="#004268"/>
<path d="M182.417 435.938C189.954 435.938 196.063 429.907 196.063 422.469C196.063 415.03 189.954 409 182.417 409C174.881 409 168.771 415.03 168.771 422.469C168.771 429.907 174.881 435.938 182.417 435.938Z" fill="#F3C716"/>
<path d="M153.489 457.696C148.827 457.726 144.257 456.416 140.367 453.917C132.927 449.072 128.821 441.271 129.006 432.861C129.315 419.818 140.584 409.184 154.075 409.184H159.015C160.096 409.184 160.96 410.037 160.96 411.103V455.776C160.96 456.842 160.096 457.696 159.015 457.696H153.489Z" fill="#DB5F23"/>
<path d="M176.212 442.215C180.874 442.184 185.443 443.494 189.333 445.993C196.774 450.838 200.88 458.67 200.695 467.05C200.386 480.092 189.148 490.727 175.625 490.727H170.686C169.605 490.727 168.741 489.873 168.741 488.807V444.134C168.741 443.068 169.605 442.215 170.686 442.215H176.212Z" fill="#00A1A6"/>
<path d="M165 224C165 259.346 193.654 288 229 288L283 288L283 233C283 197.654 254.346 169 219 169L165 169L165 224Z" fill="#67B3B9"/>
<path d="M415.278 24L224.459 24C191.621 24 165 50.6209 165 83.4594L165 143L355.818 143C388.657 143 415.278 116.379 415.278 83.5406L415.278 24Z" fill="#004268"/>
<path d="M299 757H507.5C540.361 757 567 783.639 567 816.5C567 849.361 540.361 876 507.5 876H363C327.654 876 299 847.346 299 812V757Z" fill="#67B3B9"/>
<path d="M24 143.458L24 87.9997C24 52.6535 52.6538 23.9997 88 23.9997L143.458 23.9997L143.458 143.458L24 143.458Z" fill="#DB5F23"/>
<path d="M299 735.458L299 680C299 644.653 327.654 616 363 616L418.458 616L418.458 735.458L299 735.458Z" fill="#F3C716"/>
<circle cx="492.729" cy="675.729" r="59.7292" fill="#DB5F23"/>
<circle cx="83.7292" cy="233.729" r="59.7292" fill="#F3C716"/>
<path d="M216 876C251.346 876 280 847.346 280 812L280 757L225 757C189.654 757 161 785.654 161 821L161 876L216 876Z" fill="#004268"/>
</svg>
