<svg width="129" height="34" viewBox="0 0 129 34" fill="none" xmlns="http://www.w3.org/2000/svg">
<path d="M41.8762 9.8299C41.7994 9.8299 41.7226 9.76673 41.7226 9.69092C41.6842 9.40031 41.5305 9.13498 41.3129 8.93282C41.0568 8.71802 40.66 8.61694 40.1479 8.61694C39.8662 8.6043 39.5973 8.64221 39.3285 8.73065C39.1493 8.79383 38.9828 8.89491 38.8548 9.04653C38.7524 9.17288 38.7012 9.33714 38.7012 9.50139C38.6884 9.62774 38.714 9.76673 38.778 9.88044C38.842 10.0068 38.9444 10.1079 39.0596 10.1837C39.2133 10.2848 39.3925 10.3732 39.5589 10.4237C39.8022 10.4996 40.0454 10.5754 40.2887 10.6133L41.2617 10.8154C41.8506 10.9291 42.4139 11.106 42.9516 11.3587C43.3741 11.5609 43.771 11.8262 44.1038 12.1547C44.3983 12.4453 44.6159 12.7991 44.7568 13.1782C44.8976 13.5699 44.9744 13.9995 44.9744 14.4164C44.9872 15.1113 44.7824 15.7936 44.3855 16.3748C43.963 16.9308 43.3869 17.3604 42.734 17.6004C41.9018 17.9037 41.0312 18.0427 40.1479 18.0174C39.2261 18.0427 38.3043 17.8784 37.4465 17.5625C36.7168 17.2972 36.0895 16.8044 35.6542 16.1727C35.2573 15.5788 35.0396 14.8334 35.014 13.9236C35.014 13.8352 35.0909 13.7594 35.1805 13.7594H37.9202C38.0098 13.7594 38.0738 13.8226 38.0866 13.911C38.1123 14.1763 38.2019 14.4417 38.3427 14.6691C38.5091 14.9218 38.7524 15.1113 39.034 15.225C39.3669 15.364 39.7254 15.4272 40.0966 15.4146C40.3911 15.4272 40.6856 15.3767 40.9672 15.2882C41.1721 15.225 41.3513 15.0987 41.4921 14.9344C41.6073 14.7955 41.6714 14.6059 41.6842 14.429C41.6842 14.2522 41.6201 14.0879 41.5049 13.9615C41.3513 13.7973 41.1593 13.6709 40.9416 13.5951C40.5959 13.4561 40.2503 13.3551 39.8918 13.2919L38.714 13.0392C37.6642 12.8118 36.832 12.4327 36.2303 11.902C35.6286 11.3714 35.3213 10.6512 35.3213 9.72882C35.3085 9.0339 35.5133 8.33897 35.923 7.77039C36.3583 7.18918 36.9472 6.73432 37.6258 6.45635C38.4195 6.12784 39.2645 5.97622 40.1222 5.98886C40.98 5.96359 41.825 6.12784 42.6187 6.46899C43.2845 6.74696 43.8478 7.21445 44.2447 7.8083C44.6031 8.36424 44.808 8.99599 44.8208 9.65301C44.8208 9.74146 44.7568 9.81727 44.6543 9.81727L41.8762 9.8299Z" fill="#004268"/>
<path d="M47.8536 6.15234H50.6571C50.7851 6.15234 50.9131 6.22815 50.9644 6.34187L53.1918 10.9157H53.2814L55.5088 6.34187C55.56 6.22815 55.688 6.15234 55.816 6.15234H58.6195C58.8116 6.15234 58.9652 6.30396 58.9652 6.49349C58.9652 6.54403 58.9524 6.6072 58.9268 6.65774L54.8303 14.2008V17.5491C54.8303 17.7386 54.6767 17.8903 54.4847 17.8903H51.9629C51.7708 17.8903 51.6172 17.7386 51.6172 17.5491V14.2008L47.5208 6.65774C47.4312 6.49349 47.4952 6.29133 47.6616 6.20288C47.7384 6.17761 47.8024 6.15234 47.8536 6.15234Z" fill="#004268"/>
<path d="M72.5614 6.49349V17.5491C72.5614 17.7386 72.4078 17.8903 72.2158 17.8903H69.8601L65.5584 11.7244H65.4944V17.5491C65.4944 17.7386 65.3408 17.8903 65.1488 17.8903H62.6139C62.4218 17.8903 62.2682 17.7386 62.2682 17.5491V6.49349C62.2682 6.30396 62.4218 6.15234 62.6139 6.15234H64.8287C64.9439 6.15234 65.0463 6.20288 65.1104 6.30396L69.2328 12.293H69.3224V6.49349C69.3224 6.30396 69.476 6.15234 69.6681 6.15234H72.203C72.4078 6.15234 72.5614 6.3166 72.5614 6.49349Z" fill="#004268"/>
<path d="M77.4886 17.5491V6.49349C77.4886 6.30396 77.6423 6.15234 77.8343 6.15234H85.7207C85.9127 6.15234 86.0663 6.30396 86.0663 6.49349V8.37611C86.0663 8.56563 85.9127 8.71725 85.7207 8.71725H80.7277V10.7389H85.2854C85.4774 10.7389 85.6311 10.8905 85.6311 11.08V12.9626C85.6311 13.1521 85.4774 13.3038 85.2854 13.3038H80.7277V15.3254H85.6951C85.8871 15.3254 86.0407 15.477 86.0407 15.6665V17.5491C86.0407 17.7386 85.8871 17.8903 85.6951 17.8903H77.8343C77.6423 17.8903 77.4886 17.7386 77.4886 17.5491Z" fill="#004268"/>
<path d="M93.273 6.15234C93.401 6.15234 93.5162 6.21552 93.5674 6.32923L95.4236 9.57643H95.5132L97.3822 6.32923C97.4462 6.22815 97.5614 6.15234 97.6767 6.15234H100.467C100.659 6.15234 100.813 6.30396 100.813 6.49349C100.813 6.55666 100.8 6.61984 100.762 6.67038L97.523 12.0276L100.89 17.3722C100.992 17.5365 100.941 17.7386 100.775 17.8397C100.723 17.8776 100.659 17.8903 100.595 17.8903H97.7279C97.5998 17.8903 97.4846 17.8271 97.4334 17.7134L95.5132 14.403H95.4236L93.5034 17.7134C93.4394 17.8145 93.3242 17.8903 93.209 17.8903H90.3543C90.1623 17.8903 90.0087 17.7386 90.0087 17.5491C90.0087 17.4859 90.0215 17.4228 90.0599 17.3722L93.3882 12.0276L90.1623 6.67038C90.0599 6.50612 90.1239 6.30396 90.2775 6.20288C90.3287 6.17761 90.3927 6.15234 90.4567 6.15234H93.273Z" fill="#004268"/>
<path d="M111.516 6.15234H114.051C114.243 6.15234 114.396 6.30396 114.396 6.49349V13.6702C114.46 15.3254 113.487 16.8416 111.951 17.4986C110.235 18.2061 108.289 18.2061 106.574 17.4986C105.038 16.8416 104.077 15.3254 104.141 13.6702V6.49349C104.141 6.30396 104.295 6.15234 104.487 6.15234H107.022C107.214 6.15234 107.368 6.30396 107.368 6.49349V13.3922C107.368 13.7333 107.444 14.0619 107.611 14.3651C107.765 14.6431 108.008 14.8705 108.289 15.0348C108.904 15.3506 109.647 15.3506 110.261 15.0348C110.543 14.8831 110.773 14.6431 110.94 14.3651C111.106 14.0619 111.196 13.7333 111.183 13.3922V6.49349C111.17 6.3166 111.324 6.15234 111.516 6.15234Z" fill="#004268"/>
<path d="M124.905 9.8299C124.828 9.8299 124.752 9.76673 124.752 9.69092C124.713 9.40031 124.56 9.13498 124.342 8.93282C124.086 8.71802 123.689 8.61694 123.177 8.61694C122.895 8.6043 122.626 8.64221 122.358 8.73065C122.178 8.79383 122.012 8.89491 121.884 9.04653C121.781 9.17288 121.73 9.33714 121.73 9.50139C121.717 9.62774 121.743 9.76673 121.807 9.88044C121.871 10.0068 121.973 10.1079 122.089 10.1837C122.242 10.2848 122.422 10.3732 122.588 10.4237C122.831 10.4996 123.074 10.5754 123.318 10.6133L124.291 10.8154C124.88 10.9291 125.443 11.106 125.981 11.3587C126.403 11.5609 126.8 11.8262 127.133 12.1547C127.427 12.4453 127.645 12.7991 127.786 13.1782C127.927 13.5699 128.003 13.9995 128.003 14.4164C128.016 15.1113 127.811 15.7936 127.415 16.3748C126.992 16.9308 126.416 17.3604 125.763 17.6004C124.931 17.9037 124.06 18.0427 123.177 18.0174C122.255 18.0427 121.333 17.8784 120.476 17.5625C119.746 17.2972 119.119 16.8044 118.683 16.1727C118.286 15.5788 118.069 14.8334 118.043 13.9236C118.043 13.8352 118.12 13.7594 118.21 13.7594H120.949C121.039 13.7594 121.103 13.8226 121.116 13.911C121.141 14.1763 121.231 14.4417 121.372 14.6691C121.538 14.9218 121.781 15.1113 122.063 15.225C122.396 15.364 122.754 15.4272 123.126 15.4146C123.42 15.4272 123.715 15.3767 123.996 15.2882C124.201 15.225 124.38 15.0987 124.521 14.9344C124.636 14.7955 124.7 14.6059 124.713 14.429C124.713 14.2522 124.649 14.0879 124.534 13.9615C124.38 13.7973 124.188 13.6709 123.971 13.5951C123.625 13.4561 123.279 13.3551 122.921 13.2919L121.743 13.0392C120.693 12.8118 119.861 12.4327 119.259 11.902C118.658 11.3714 118.35 10.6512 118.35 9.72882C118.338 9.0339 118.542 8.33897 118.952 7.77039C119.387 7.18918 119.976 6.73432 120.655 6.45635C121.449 6.12784 122.294 5.97622 123.151 5.98886C124.009 5.96359 124.854 6.12784 125.648 6.46899C126.314 6.74696 126.877 7.21445 127.274 7.8083C127.632 8.36424 127.837 8.99599 127.85 9.65301C127.85 9.74146 127.786 9.81727 127.683 9.81727L124.905 9.8299Z" fill="#004268"/>
<path d="M36.7549 23.5125V23.083C36.7549 22.9945 36.8317 22.9187 36.9213 22.9187H40.6725C40.7621 22.9187 40.8389 22.9945 40.8389 23.083V23.5125C40.8389 23.601 40.7621 23.6768 40.6725 23.6768H39.4306C39.341 23.6768 39.2642 23.7526 39.2642 23.8411V27.7958C39.2642 27.8843 39.1874 27.9601 39.0977 27.9601H38.5216C38.432 27.9601 38.3552 27.8843 38.3552 27.7958V23.8411C38.3552 23.7526 38.2784 23.6768 38.1888 23.6768H36.9469C36.8317 23.6894 36.7549 23.6136 36.7549 23.5125Z" fill="#004268"/>
<path d="M43.8599 27.9866H43.2326C43.143 27.9866 43.0662 27.9108 43.0662 27.8224C43.0662 27.7971 43.0662 27.7845 43.079 27.7718L44.7689 23.0463C44.7945 22.9832 44.8585 22.9326 44.9353 22.9326H45.8443C45.9211 22.9326 45.9851 22.9832 46.0107 23.0463L47.7007 27.7718C47.7263 27.8603 47.6879 27.9613 47.5983 27.9866C47.5855 27.9993 47.5599 27.9993 47.547 27.9993H46.9197C46.8429 27.9993 46.7789 27.9487 46.7533 27.8855L45.4218 23.9813H45.3834L44.052 27.8855C44.0007 27.9361 43.9367 27.9866 43.8599 27.9866ZM44.1928 25.9903H46.5485C46.6381 25.9903 46.7149 26.0661 46.7149 26.1545V26.5462C46.7149 26.6347 46.6381 26.7105 46.5485 26.7105H44.1928C44.1032 26.7105 44.0264 26.6347 44.0264 26.5462V26.1545C44.0135 26.0661 44.0904 25.9903 44.1928 25.9903Z" fill="#004268"/>
<path d="M50.9387 22.9187C51.0028 22.9187 51.054 22.944 51.0924 23.0071L52.1678 24.776H52.2062L53.2944 23.0071C53.32 22.9566 53.384 22.9313 53.448 22.9313H54.101C54.1906 22.9313 54.2674 23.0071 54.2674 23.0956C54.2674 23.1209 54.2546 23.1588 54.2418 23.184L52.8719 25.3573C52.8335 25.4078 52.8335 25.4836 52.8719 25.5341L54.2546 27.72C54.3058 27.7958 54.2802 27.9095 54.2034 27.9601C54.1778 27.9727 54.1394 27.9853 54.1138 27.9853H53.448C53.384 27.9853 53.3328 27.9601 53.3072 27.9095L52.219 26.1533H52.1806L51.0924 27.9095C51.0668 27.9601 51.0028 27.9853 50.9515 27.9853H50.2858C50.1962 27.9853 50.1194 27.9095 50.1194 27.8211C50.1194 27.7832 50.1322 27.7579 50.145 27.7326L51.5405 25.5468C51.5789 25.4962 51.5789 25.4204 51.5405 25.3699L50.1578 23.184C50.1066 23.1082 50.1322 22.9945 50.209 22.944C50.2346 22.9313 50.273 22.9187 50.2986 22.9187H50.9387Z" fill="#004268"/>
<path d="M62.7038 24.3085C62.627 24.3085 62.563 24.2579 62.5374 24.1821C62.499 24.0305 62.3966 23.8915 62.2686 23.8031C62.0637 23.6767 61.8333 23.6136 61.59 23.6262C61.4236 23.6262 61.2444 23.6515 61.0907 23.7146C60.9627 23.7652 60.8603 23.841 60.7707 23.9547C60.6938 24.0558 60.6554 24.1695 60.6554 24.2959C60.6554 24.3969 60.681 24.4854 60.7322 24.5738C60.7835 24.6496 60.8475 24.7254 60.9371 24.776C61.0267 24.8265 61.1163 24.8771 61.2187 24.915C61.3212 24.9529 61.4236 24.9781 61.526 25.0034L62.0125 25.1171C62.2045 25.155 62.3966 25.2182 62.5758 25.294C62.755 25.3698 62.9087 25.4583 63.0623 25.5846C63.2031 25.6983 63.3184 25.8373 63.408 26.0016C63.4976 26.1785 63.536 26.3806 63.536 26.5702C63.536 26.8481 63.4592 27.1261 63.3056 27.3535C63.1391 27.5936 62.9087 27.7705 62.6398 27.8842C62.307 28.0232 61.9485 28.0864 61.59 28.0737C61.2315 28.0864 60.8859 28.0232 60.553 27.8968C60.2714 27.7831 60.0409 27.6062 59.8617 27.3662C59.7209 27.164 59.644 26.9366 59.6056 26.7091C59.5928 26.6207 59.6568 26.5322 59.7593 26.5196C59.7721 26.5196 59.7721 26.5196 59.7849 26.5196H60.361C60.4378 26.5196 60.5146 26.5702 60.5274 26.646C60.553 26.7597 60.6042 26.8608 60.6682 26.9492C60.7707 27.0629 60.8987 27.164 61.0523 27.2145C61.2187 27.2777 61.398 27.303 61.5772 27.303C61.7565 27.303 61.9357 27.2777 62.1149 27.2145C62.2558 27.164 62.3838 27.0756 62.4734 26.9618C62.563 26.8481 62.6014 26.7218 62.6014 26.5828C62.6014 26.4691 62.563 26.3427 62.4862 26.2543C62.3966 26.1532 62.2814 26.09 62.1661 26.0395C62.0125 25.9763 61.8461 25.9258 61.6796 25.8879L61.0907 25.7362C60.7194 25.6604 60.3738 25.4835 60.0921 25.2435C59.8489 25.016 59.708 24.7002 59.7208 24.3717C59.7208 24.0937 59.7977 23.8157 59.9641 23.5883C60.1305 23.3609 60.3738 23.1713 60.6426 23.0703C60.9499 22.9439 61.27 22.8807 61.6028 22.8807C61.9357 22.8681 62.2558 22.9313 62.563 23.0703C62.8191 23.184 63.0495 23.3609 63.2159 23.5883C63.3312 23.7525 63.408 23.9547 63.4464 24.1569C63.4592 24.2453 63.3952 24.3338 63.2928 24.3464C63.28 24.3464 63.28 24.3464 63.2672 24.3464L62.7038 24.3085Z" fill="#004268"/>
<path d="M70.8968 25.4475C70.9096 25.9276 70.8071 26.4078 70.5895 26.85C70.3975 27.2164 70.103 27.5323 69.7445 27.7471C68.9892 28.164 68.0802 28.164 67.3376 27.7471C66.9792 27.5323 66.6847 27.229 66.4927 26.85C66.083 25.9655 66.083 24.9421 66.4927 24.045C66.6847 23.6786 66.9792 23.3627 67.3376 23.1479C68.093 22.731 69.002 22.731 69.7445 23.1479C70.103 23.3627 70.3975 23.666 70.5895 24.045C70.8071 24.4872 70.9096 24.9674 70.8968 25.4475ZM69.9622 25.4475C69.975 25.119 69.911 24.7778 69.7829 24.4746C69.6805 24.2345 69.5013 24.0197 69.2836 23.8681C68.8355 23.5901 68.2594 23.5901 67.8113 23.8681C67.5937 24.0197 67.4145 24.2219 67.312 24.4746C67.0688 25.1063 67.0688 25.7886 67.312 26.4204C67.4145 26.6605 67.5937 26.8752 67.8113 27.0269C68.2594 27.3048 68.8355 27.3048 69.2836 27.0269C69.5013 26.8752 69.6805 26.6731 69.7829 26.4204C69.911 26.1171 69.975 25.7886 69.9622 25.4475Z" fill="#004268"/>
<path d="M73.9429 27.8085V23.083C73.9429 22.9945 74.0197 22.9187 74.1093 22.9187H74.6982C74.7878 22.9187 74.8647 22.9945 74.8647 23.083V27.0377C74.8647 27.1262 74.9415 27.202 75.0311 27.202H76.9515C77.0411 27.202 77.1179 27.2778 77.1179 27.3662V27.7958C77.1179 27.8843 77.0411 27.9601 76.9515 27.9601H74.1221C74.0197 27.9853 73.9429 27.9095 73.9429 27.8085Z" fill="#004268"/>
<path d="M82.8013 22.9187H83.3902C83.4799 22.9187 83.5567 22.9945 83.5567 23.083V26.2164C83.5695 26.5576 83.4799 26.8861 83.3006 27.1767C83.1214 27.4547 82.8781 27.6821 82.5709 27.8211C81.8795 28.1243 81.073 28.1243 80.3817 27.8211C80.0872 27.6821 79.8311 27.4547 79.6519 27.1767C79.4727 26.8861 79.3831 26.5576 79.3959 26.2164V23.083C79.3959 22.9945 79.4727 22.9187 79.5623 22.9187H80.1512C80.2408 22.9187 80.3176 22.9945 80.3176 23.083V26.1533C80.3176 26.3554 80.3688 26.5449 80.4585 26.7218C80.5481 26.8861 80.6889 27.0251 80.8553 27.1135C81.2394 27.3031 81.6875 27.3031 82.0844 27.1135C82.2508 27.0251 82.3916 26.8861 82.4813 26.7218C82.5709 26.5449 82.6221 26.3554 82.6221 26.1533V23.0956C82.6349 22.9945 82.7117 22.9187 82.8013 22.9187Z" fill="#004268"/>
<path d="M86.3344 23.5125V23.083C86.3344 22.9945 86.4112 22.9187 86.5008 22.9187H90.2519C90.3415 22.9187 90.4184 22.9945 90.4184 23.083V23.5125C90.4184 23.601 90.3415 23.6768 90.2519 23.6768H89.0101C88.9205 23.6768 88.8436 23.7526 88.8436 23.8411V27.7958C88.8436 27.8843 88.7668 27.9601 88.6772 27.9601H88.1011C88.0115 27.9601 87.9347 27.8843 87.9347 27.7958V23.8411C87.9347 23.7526 87.8578 23.6768 87.7682 23.6768H86.5264C86.4112 23.6894 86.3344 23.6136 86.3344 23.5125Z" fill="#004268"/>
<path d="M94.3865 23.083V27.8085C94.3865 27.8969 94.3097 27.9727 94.2201 27.9727H93.6312C93.5415 27.9727 93.4647 27.8969 93.4647 27.8085V23.083C93.4647 22.9945 93.5415 22.9187 93.6312 22.9187H94.2201C94.3097 22.9187 94.3865 22.9945 94.3865 23.083Z" fill="#004268"/>
<path d="M102.08 25.4475C102.093 25.9276 101.991 26.4078 101.773 26.85C101.581 27.2164 101.287 27.5323 100.928 27.7471C100.173 28.164 99.2638 28.164 98.5212 27.7471C98.1628 27.5323 97.8683 27.229 97.6763 26.85C97.2666 25.9655 97.2666 24.9421 97.6763 24.045C97.8683 23.6786 98.1628 23.3627 98.5212 23.1479C99.2766 22.731 100.186 22.731 100.928 23.1479C101.287 23.3627 101.581 23.666 101.773 24.045C101.978 24.4872 102.093 24.9674 102.08 25.4475ZM101.146 25.4475C101.159 25.119 101.095 24.7778 100.967 24.4746C100.864 24.2345 100.685 24.0197 100.467 23.8681C100.019 23.5901 99.443 23.5901 98.9949 23.8681C98.7773 24.0197 98.5981 24.2219 98.4956 24.4746C98.2524 25.1063 98.2524 25.7886 98.4956 26.4204C98.5981 26.6605 98.7773 26.8752 98.9949 27.0269C99.443 27.3048 100.019 27.3048 100.467 27.0269C100.685 26.8752 100.864 26.6731 100.967 26.4204C101.095 26.1171 101.146 25.7886 101.146 25.4475Z" fill="#004268"/>
<path d="M108.929 23.083V27.8085C108.929 27.8969 108.853 27.9727 108.763 27.9727H108.2C108.149 27.9727 108.084 27.9474 108.059 27.8969L105.69 24.5233H105.652V27.8085C105.652 27.8969 105.575 27.9727 105.486 27.9727H104.897C104.807 27.9727 104.73 27.8969 104.73 27.8085V23.083C104.73 22.9945 104.807 22.9187 104.897 22.9187H105.46C105.511 22.9187 105.575 22.944 105.601 22.9945L107.969 26.3681H108.02V23.083C108.02 22.9945 108.097 22.9187 108.187 22.9187H108.763C108.853 22.9187 108.929 22.9945 108.929 23.083Z" fill="#004268"/>
<path d="M114.728 24.3085C114.651 24.3085 114.587 24.2579 114.562 24.1821C114.523 24.0305 114.421 23.8915 114.293 23.8031C114.088 23.6767 113.857 23.6136 113.614 23.6262C113.448 23.6262 113.269 23.6515 113.115 23.7146C112.987 23.7652 112.884 23.841 112.795 23.9547C112.718 24.0558 112.68 24.1695 112.68 24.2959C112.68 24.3969 112.705 24.4854 112.756 24.5738C112.808 24.6496 112.872 24.7254 112.961 24.776C113.051 24.8265 113.14 24.8771 113.243 24.915C113.345 24.9529 113.448 24.9781 113.55 25.0034L114.037 25.1171C114.229 25.155 114.421 25.2182 114.6 25.294C114.779 25.3698 114.933 25.4583 115.086 25.5846C115.227 25.6983 115.343 25.8373 115.432 26.0016C115.522 26.1785 115.56 26.3806 115.56 26.5702C115.56 26.8481 115.483 27.1261 115.33 27.3535C115.163 27.5936 114.933 27.7705 114.664 27.8842C114.331 28.0232 113.973 28.0864 113.614 28.0737C113.256 28.0864 112.91 28.0232 112.577 27.8968C112.296 27.7831 112.065 27.6062 111.886 27.3662C111.745 27.164 111.668 26.9366 111.63 26.7091C111.617 26.6207 111.681 26.5322 111.783 26.5196C111.796 26.5196 111.796 26.5196 111.809 26.5196H112.385C112.462 26.5196 112.539 26.5702 112.552 26.646C112.577 26.7597 112.628 26.8608 112.692 26.9492C112.795 27.0629 112.923 27.164 113.076 27.2145C113.243 27.2777 113.422 27.303 113.601 27.303C113.781 27.303 113.96 27.2777 114.139 27.2145C114.28 27.164 114.408 27.0756 114.498 26.9618C114.587 26.8481 114.626 26.7218 114.626 26.5828C114.626 26.4691 114.587 26.3427 114.51 26.2543C114.421 26.1532 114.306 26.09 114.19 26.0395C114.037 25.9763 113.87 25.9258 113.704 25.8879L113.115 25.7362C112.744 25.6604 112.398 25.4835 112.116 25.2435C111.873 25.016 111.732 24.7002 111.745 24.3717C111.745 24.0937 111.822 23.8157 111.988 23.5883C112.155 23.3609 112.398 23.1713 112.667 23.0703C112.974 22.9439 113.294 22.8807 113.627 22.8807C113.96 22.8681 114.28 22.9313 114.587 23.0703C114.843 23.184 115.074 23.3609 115.24 23.5883C115.355 23.7525 115.432 23.9547 115.471 24.1569C115.483 24.2453 115.419 24.3338 115.317 24.3464C115.304 24.3464 115.304 24.3464 115.291 24.3464L114.728 24.3085Z" fill="#004268"/>
<path d="M116.879 23.1091H117.237V24.0309H117.532V23.1091H117.89V22.8691H116.879V23.1091Z" fill="#004268"/>
<path d="M119.285 22.8691H119.093H119.029L118.734 23.6395L118.453 22.8691H118.389H118.184H118.094V24.0309H118.389V23.3743L118.658 24.0309H118.824L119.093 23.3743V24.0309H119.387V22.8691H119.285Z" fill="#004268"/>
<path d="M6.26228 34.0002C9.61344 34.0002 12.3301 31.3188 12.3301 28.0112C12.3301 24.7036 9.61344 22.0222 6.26228 22.0222C2.91111 22.0222 0.194458 24.7036 0.194458 28.0112C0.194458 31.3188 2.91111 34.0002 6.26228 34.0002Z" fill="#004268"/>
<path d="M22.1489 11.1693C25.2738 11.1693 27.8071 8.669 27.8071 5.58467C27.8071 2.50034 25.2738 0 22.1489 0C19.024 0 16.4907 2.50034 16.4907 5.58467C16.4907 8.669 19.024 11.1693 22.1489 11.1693Z" fill="#F3C716"/>
<path d="M10.1539 20.1909C8.22093 20.2035 6.32633 19.6602 4.71337 18.6241C1.62826 16.6152 -0.0743172 13.3806 0.00249059 9.89333C0.130504 4.48555 4.80298 0.0759277 10.3971 0.0759277H12.4454C12.8934 0.0759277 13.2518 0.429708 13.2518 0.871933V19.3949C13.2518 19.8371 12.8934 20.1909 12.4454 20.1909H10.1539Z" fill="#DB5F23"/>
<path d="M19.5757 13.7717C21.5087 13.7591 23.4033 14.3024 25.0163 15.3384C28.1014 17.3474 29.8039 20.5946 29.7271 24.0692C29.5991 29.477 24.9394 33.8866 19.3325 33.8866H17.2843C16.8362 33.8866 16.4778 33.5329 16.4778 33.0906V14.5677C16.4778 14.1255 16.8362 13.7717 17.2843 13.7717H19.5757Z" fill="#00A1A6"/>
</svg>
